<?xml version="1.0" encoding="UTF-8"?><svg id="_イヤー_2" xmlns="http://www.w3.org/2000/svg" viewBox="0 0 180.28 136.34"><defs><style>.cls-1{stroke-linecap:round;stroke-linejoin:round;stroke-width:10px;}.cls-1,.cls-2{fill:#fff;stroke:#fff;}.cls-2{stroke-width:8.97px;}.cls-2,.cls-3,.cls-4,.cls-5{stroke-miterlimit:10;}.cls-3{fill:#ea5514;stroke:#ea5514;}.cls-3,.cls-4,.cls-5{stroke-width:2px;}.cls-4{fill:#006934;stroke:#006934;}.cls-5{fill:#231815;stroke:#231815;}.cls-6{fill:#4c3b30;}</style></defs><g id="_イヤー_1-2"><g><g><path class="cls-1" d="M10.34,54.59c-.29,.35-.75,.52-1.28,.52-1.28,0-2.49-.87-2.49-2.15,0-.41,.17-.75,.41-1.04,2.78-3.36,4.81-8.64,5.51-14.5,.12-.75,.87-1.51,1.97-1.51,1.28,0,2.32,1.04,2.32,1.91v.06c-.58,6.5-3.25,12.47-6.44,16.7Zm.29-26.62c-1.16,0-2.9-.64-2.9-1.97,0-1.1,.7-2.84,2.03-2.84,1.04,0,2.78,.7,2.78,1.91,0,1.04-.64,2.9-1.91,2.9Zm1.57-13.51c-.99,0-2.84-.87-2.84-2.09,0-.99,.93-2.84,2.09-2.84,.99,0,2.78,.93,2.78,2.09,0,.99-.87,2.84-2.03,2.84ZM30.98,57.9h-.99c-.87,0-1.91-.81-1.91-2.09s.75-2.03,1.68-2.03h.64c1.68,0,2.9-.99,2.9-3.02v-6.03c0-.81-.64-1.39-1.45-1.39h-5.8c-.81,4.52-2.2,7.66-4.76,10.21-.35,.35-.81,.52-1.33,.52-1.1,0-2.26-.81-2.26-2.38,0-.58,.23-1.16,.64-1.51,2.73-3.07,4-7.02,4.06-14.91h-2.38c-.93,0-1.86-.81-1.86-2.09s.93-2.15,1.86-2.15h5.68v-2.2c0-.87,.81-1.91,2.2-1.91s2.26,1.04,2.26,1.91v2.2h4.23c.87,0,1.86,.87,1.86,2.15s-.99,2.09-1.86,2.09h-7.77c0,1.51-.06,2.9-.12,4.18h6.61c2.38,0,4.29,1.91,4.29,4.35v7.37c0,4.18-2.2,6.73-6.44,6.73Zm1.97-31.67h-10.15c-2.49,0-4.41-1.91-4.41-4.35V12.02c0-2.44,1.91-4.35,4.41-4.35h2.15l.41-1.16c.23-.7,.99-1.1,1.91-1.1,1.51,0,2.15,.93,2.15,1.57l-.17,.7h3.71c2.49,0,4.41,1.91,4.41,4.35v9.86c0,2.44-1.91,4.35-4.41,4.35Zm0-13.69c0-.87-.64-1.45-1.45-1.45h-7.25c-.81,0-1.45,.58-1.45,1.45v2.73h10.15v-2.73Zm0,6.15h-10.15v2.67c0,.81,.64,1.39,1.45,1.39h7.25c.81,0,1.45-.58,1.45-1.39v-2.67Zm23.72-3.71h-.17c-.06,12.24-1.62,22.16-5.63,29.93,1.57,2.44,3.6,4.64,6.15,6.5,.58,.41,.93,1.1,.93,1.74,0,1.28-1.22,2.32-2.38,2.32-1.97,0-6.03-5.16-7.08-6.67-1.04,1.51-5.34,6.96-7.19,6.96-1.16,0-2.44-.93-2.44-2.26,0-.87,.41-1.68,.99-2.09,2.44-1.8,4.47-4.06,6.15-6.67-1.91-3.71-3.25-7.83-4.23-12.35,0-.12-.06-.23-.06-.35,0-.93,.81-1.86,1.97-1.86,.99,0,1.68,.7,1.86,1.33,.7,3.13,1.62,6.09,2.84,8.82,2.84-6.67,4.06-15.2,4.12-25.35h-5.63c-.58,4-1.68,7.13-3.54,9.92-.23,.52-.87,.81-1.68,.81-1.22,0-2.03-.99-2.03-2.09,0-.35,.06-.75,.29-1.1,2.15-3.6,3.13-9.16,3.19-15.72,0-.81,.87-1.8,2.26-1.8,1.16,0,2.03,.99,2.03,1.8,0,1.22-.06,2.38-.12,3.42h9.4c1.04,0,2.09,.99,2.09,2.38s-1.04,2.38-2.09,2.38Z"/><path class="cls-1" d="M64.8,57.6h-.23c-1.39,0-2.26-1.39-2.26-2.9,0-1.39,.99-2.2,1.91-2.32,10.79-1.68,16.7-8.29,16.7-18.97v-6.26c0-1.04,1.04-2.15,2.61-2.15s2.67,1.1,2.67,2.15v6.32c0,13.69-7.77,22.5-21.4,24.13Zm37.81-18.5c-.35,.23-.7,.29-1.1,.29-1.39,0-2.78-1.33-2.78-2.9,0-.75,.35-1.51,.99-1.91,5.16-3.13,8.35-7.31,8.35-14.91v-4.12c0-.75-.64-1.39-1.39-1.39h-25.17c-1.04,0-2.2-1.1-2.2-2.67s1.16-2.61,2.2-2.61h27.61c2.44,0,4.35,1.91,4.35,4.35v6.55c0,9.45-4.23,15.54-10.85,19.31Z"/><path class="cls-1" d="M121.29,29.42c-1.39,0-2.38-.87-2.49-1.91l-1.1-10.67c0-1.33,1.45-2.03,2.73-2.03s2.2,.87,2.32,1.8l1.28,10.38v.23c0,1.39-1.39,2.2-2.73,2.2Zm15.02,27.26h-.35c-1.39,0-2.26-1.28-2.26-2.84,0-1.28,.87-2.2,1.74-2.32,17.05-2.38,23.95-12.01,23.95-27.61V9.7c0-.99,1.04-2.15,2.61-2.15s2.61,1.16,2.61,2.15v14.21c0,18.56-8.24,30.16-28.3,32.77Zm2.55-27.26c-1.33,0-2.38-.93-2.49-1.91l-1.1-10.67c0-1.28,1.39-2.03,2.73-2.03s2.2,.87,2.32,1.8l1.28,10.38v.23c0,1.39-1.39,2.2-2.73,2.2Z"/><path class="cls-1" d="M26.52,125.17c-4.29,1.22-9.05,1.62-19.43,1.62-.99,0-2.09-.99-2.09-2.49,0-1.39,1.1-2.38,2.09-2.38h3.42v-16.94c0-1.04,.99-2.15,2.49-2.15s2.49,1.1,2.49,2.15v2.9h9.4c.87,0,1.86,.87,1.86,2.2s-.99,2.2-1.86,2.2H15.5v9.51c4.23-.17,7.13-.58,9.74-1.33,.12,0,.29-.06,.41-.06,1.1,0,2.32,.87,2.38,2.49v.12c0,.93-.64,1.91-1.51,2.15Zm23.95-24.59H14.34c-2.44,0-4.35-1.91-4.35-4.35v-15.66c0-2.44,1.91-4.35,4.35-4.35H50.47c2.44,0,4.35,1.91,4.35,4.35v15.66c0,2.44-1.91,4.35-4.35,4.35Zm-.75-19.08c0-.81-.58-1.45-1.39-1.45H16.48c-.75,0-1.39,.64-1.39,1.45v5.16H49.72v-5.16Zm0,8.64H15.09v5.16c0,.81,.64,1.45,1.39,1.45h31.84c.81,0,1.39-.64,1.39-1.45v-5.16Zm.41,19.95l-11.08,3.48v6.09c0,1.33,.99,2.38,2.32,2.38h7.83c.99,0,2.03,.93,2.03,2.32s-1.04,2.44-2.03,2.44h-8.82c-3.89,0-6.32-2.78-6.32-6.21v-15.66c0-.99,1.04-2.09,2.55-2.09s2.44,1.1,2.44,2.09v3.94l9.86-3.19c.17-.06,.29-.06,.46-.06,.93,0,1.97,.87,1.97,2.38,0,.93-.41,1.86-1.22,2.09Z"/><path class="cls-1" d="M112.65,127.55c-.81,0-1.74-.41-2.09-1.28l-1.33-3.48c-4.64,2.78-11.31,4-21.29,4h-11.08c-.99,0-2.09-.99-2.09-2.44s1.1-2.38,2.09-2.38h10.5v-14.73h-17.75c-2.44,0-4.35-1.91-4.35-4.35v-17.4c0-2.44,1.91-4.35,4.35-4.35h17.75v-4.52c0-.99,1.04-2.09,2.55-2.09s2.49,1.1,2.49,2.09v4.52h17.69c2.44,0,4.35,1.91,4.35,4.35v17.4c0,2.44-1.91,4.35-4.35,4.35h-17.69v14.67c6.96-.23,11.43-1.16,15.2-3.36l-1.74-4.47c-.06-.17-.12-.35-.12-.52,0-1.1,1.22-2.26,2.67-2.26,1.04,0,1.86,.58,2.09,1.28l4.58,12.18c.06,.17,.12,.35,.12,.52,0,1.16-1.16,2.26-2.55,2.26Zm-25.29-41.7h-15.54c-.81,0-1.39,.58-1.39,1.39v13.98c0,.75,.58,1.39,1.39,1.39h15.54v-16.76Zm21.98,1.39c0-.81-.64-1.39-1.39-1.39h-15.54v16.76h15.54c.75,0,1.39-.64,1.39-1.39v-13.98Z"/></g><g><path class="cls-5" d="M10.34,54.59c-.29,.35-.75,.52-1.28,.52-1.28,0-2.49-.87-2.49-2.15,0-.41,.17-.75,.41-1.04,2.78-3.36,4.81-8.64,5.51-14.5,.12-.75,.87-1.51,1.97-1.51,1.28,0,2.32,1.04,2.32,1.91v.06c-.58,6.5-3.25,12.47-6.44,16.7Zm.29-26.62c-1.16,0-2.9-.64-2.9-1.97,0-1.1,.7-2.84,2.03-2.84,1.04,0,2.78,.7,2.78,1.91,0,1.04-.64,2.9-1.91,2.9Zm1.57-13.51c-.99,0-2.84-.87-2.84-2.09,0-.99,.93-2.84,2.09-2.84,.99,0,2.78,.93,2.78,2.09,0,.99-.87,2.84-2.03,2.84ZM30.98,57.9h-.99c-.87,0-1.91-.81-1.91-2.09s.75-2.03,1.68-2.03h.64c1.68,0,2.9-.99,2.9-3.02v-6.03c0-.81-.64-1.39-1.45-1.39h-5.8c-.81,4.52-2.2,7.66-4.76,10.21-.35,.35-.81,.52-1.33,.52-1.1,0-2.26-.81-2.26-2.38,0-.58,.23-1.16,.64-1.51,2.73-3.07,4-7.02,4.06-14.91h-2.38c-.93,0-1.86-.81-1.86-2.09s.93-2.15,1.86-2.15h5.68v-2.2c0-.87,.81-1.91,2.2-1.91s2.26,1.04,2.26,1.91v2.2h4.23c.87,0,1.86,.87,1.86,2.15s-.99,2.09-1.86,2.09h-7.77c0,1.51-.06,2.9-.12,4.18h6.61c2.38,0,4.29,1.91,4.29,4.35v7.37c0,4.18-2.2,6.73-6.44,6.73Zm1.97-31.67h-10.15c-2.49,0-4.41-1.91-4.41-4.35V12.02c0-2.44,1.91-4.35,4.41-4.35h2.15l.41-1.16c.23-.7,.99-1.1,1.91-1.1,1.51,0,2.15,.93,2.15,1.57l-.17,.7h3.71c2.49,0,4.41,1.91,4.41,4.35v9.86c0,2.44-1.91,4.35-4.41,4.35Zm0-13.69c0-.87-.64-1.45-1.45-1.45h-7.25c-.81,0-1.45,.58-1.45,1.45v2.73h10.15v-2.73Zm0,6.15h-10.15v2.67c0,.81,.64,1.39,1.45,1.39h7.25c.81,0,1.45-.58,1.45-1.39v-2.67Zm23.72-3.71h-.17c-.06,12.24-1.62,22.16-5.63,29.93,1.57,2.44,3.6,4.64,6.15,6.5,.58,.41,.93,1.1,.93,1.74,0,1.28-1.22,2.32-2.38,2.32-1.97,0-6.03-5.16-7.08-6.67-1.04,1.51-5.34,6.96-7.19,6.96-1.16,0-2.44-.93-2.44-2.26,0-.87,.41-1.68,.99-2.09,2.44-1.8,4.47-4.06,6.15-6.67-1.91-3.71-3.25-7.83-4.23-12.35,0-.12-.06-.23-.06-.35,0-.93,.81-1.86,1.97-1.86,.99,0,1.68,.7,1.86,1.33,.7,3.13,1.62,6.09,2.84,8.82,2.84-6.67,4.06-15.2,4.12-25.35h-5.63c-.58,4-1.68,7.13-3.54,9.92-.23,.52-.87,.81-1.68,.81-1.22,0-2.03-.99-2.03-2.09,0-.35,.06-.75,.29-1.1,2.15-3.6,3.13-9.16,3.19-15.72,0-.81,.87-1.8,2.26-1.8,1.16,0,2.03,.99,2.03,1.8,0,1.22-.06,2.38-.12,3.42h9.4c1.04,0,2.09,.99,2.09,2.38s-1.04,2.38-2.09,2.38Z"/><path class="cls-5" d="M64.8,57.6h-.23c-1.39,0-2.26-1.39-2.26-2.9,0-1.39,.99-2.2,1.91-2.32,10.79-1.68,16.7-8.29,16.7-18.97v-6.26c0-1.04,1.04-2.15,2.61-2.15s2.67,1.1,2.67,2.15v6.32c0,13.69-7.77,22.5-21.4,24.13Zm37.81-18.5c-.35,.23-.7,.29-1.1,.29-1.39,0-2.78-1.33-2.78-2.9,0-.75,.35-1.51,.99-1.91,5.16-3.13,8.35-7.31,8.35-14.91v-4.12c0-.75-.64-1.39-1.39-1.39h-25.17c-1.04,0-2.2-1.1-2.2-2.67s1.16-2.61,2.2-2.61h27.61c2.44,0,4.35,1.91,4.35,4.35v6.55c0,9.45-4.23,15.54-10.85,19.31Z"/><path class="cls-5" d="M121.29,29.42c-1.39,0-2.38-.87-2.49-1.91l-1.1-10.67c0-1.33,1.45-2.03,2.73-2.03s2.2,.87,2.32,1.8l1.28,10.38v.23c0,1.39-1.39,2.2-2.73,2.2Zm15.02,27.26h-.35c-1.39,0-2.26-1.28-2.26-2.84,0-1.28,.87-2.2,1.74-2.32,17.05-2.38,23.95-12.01,23.95-27.61V9.7c0-.99,1.04-2.15,2.61-2.15s2.61,1.16,2.61,2.15v14.21c0,18.56-8.24,30.16-28.3,32.77Zm2.55-27.26c-1.33,0-2.38-.93-2.49-1.91l-1.1-10.67c0-1.28,1.39-2.03,2.73-2.03s2.2,.87,2.32,1.8l1.28,10.38v.23c0,1.39-1.39,2.2-2.73,2.2Z"/><path class="cls-4" d="M26.52,125.17c-4.29,1.22-9.05,1.62-19.43,1.62-.99,0-2.09-.99-2.09-2.49,0-1.39,1.1-2.38,2.09-2.38h3.42v-16.94c0-1.04,.99-2.15,2.49-2.15s2.49,1.1,2.49,2.15v2.9h9.4c.87,0,1.86,.87,1.86,2.2s-.99,2.2-1.86,2.2H15.5v9.51c4.23-.17,7.13-.58,9.74-1.33,.12,0,.29-.06,.41-.06,1.1,0,2.32,.87,2.38,2.49v.12c0,.93-.64,1.91-1.51,2.15Zm23.95-24.59H14.34c-2.44,0-4.35-1.91-4.35-4.35v-15.66c0-2.44,1.91-4.35,4.35-4.35H50.47c2.44,0,4.35,1.91,4.35,4.35v15.66c0,2.44-1.91,4.35-4.35,4.35Zm-.75-19.08c0-.81-.58-1.45-1.39-1.45H16.48c-.75,0-1.39,.64-1.39,1.45v5.16H49.72v-5.16Zm0,8.64H15.09v5.16c0,.81,.64,1.45,1.39,1.45h31.84c.81,0,1.39-.64,1.39-1.45v-5.16Zm.41,19.95l-11.08,3.48v6.09c0,1.33,.99,2.38,2.32,2.38h7.83c.99,0,2.03,.93,2.03,2.32s-1.04,2.44-2.03,2.44h-8.82c-3.89,0-6.32-2.78-6.32-6.21v-15.66c0-.99,1.04-2.09,2.55-2.09s2.44,1.1,2.44,2.09v3.94l9.86-3.19c.17-.06,.29-.06,.46-.06,.93,0,1.97,.87,1.97,2.38,0,.93-.41,1.86-1.22,2.09Z"/><path class="cls-3" d="M112.65,127.55c-.81,0-1.74-.41-2.09-1.28l-1.33-3.48c-4.64,2.78-11.31,4-21.29,4h-11.08c-.99,0-2.09-.99-2.09-2.44s1.1-2.38,2.09-2.38h10.5v-14.73h-17.75c-2.44,0-4.35-1.91-4.35-4.35v-17.4c0-2.44,1.91-4.35,4.35-4.35h17.75v-4.52c0-.99,1.04-2.09,2.55-2.09s2.49,1.1,2.49,2.09v4.52h17.69c2.44,0,4.35,1.91,4.35,4.35v17.4c0,2.44-1.91,4.35-4.35,4.35h-17.69v14.67c6.96-.23,11.43-1.16,15.2-3.36l-1.74-4.47c-.06-.17-.12-.35-.12-.52,0-1.1,1.22-2.26,2.67-2.26,1.04,0,1.86,.58,2.09,1.28l4.58,12.18c.06,.17,.12,.35,.12,.52,0,1.16-1.16,2.26-2.55,2.26Zm-25.29-41.7h-15.54c-.81,0-1.39,.58-1.39,1.39v13.98c0,.75,.58,1.39,1.39,1.39h15.54v-16.76Zm21.98,1.39c0-.81-.64-1.39-1.39-1.39h-15.54v16.76h15.54c.75,0,1.39-.64,1.39-1.39v-13.98Z"/></g><g><g><polygon class="cls-2" points="150.27 102.33 151.68 99.83 147.77 100.92 150.27 102.33"/><path class="cls-2" d="M175.71,119.38l-2.35-8.43c-.13-.46-.39-.88-.76-1.19l-6.39-5.5c-.59-2.3-1.39-4.47-2.18-6.35l1.49-.42,5.55,6.14c.64,.71,1.6,.95,2.46,.71,.35-.1,.69-.28,.98-.54,1-.9,1.07-2.44,.17-3.43l-6.56-7.26c-.62-.68-1.57-.96-2.45-.71l-3.36,.94c-.03-.69-.13-1.35-.28-1.99l3.58-3.23c.39-.35,.66-.82,.76-1.34l1.87-9.6c.26-1.32-.6-2.59-1.92-2.85-1.32-.26-2.59,.6-2.85,1.92l-1.71,8.81-2.04,1.85c-2.72-3.13-7.18-4.93-11.54-4.82l-1.71-6.12c4.22-2.86,6.69-8.6,5.32-13.5-.5-1.81-2.38-2.87-4.19-2.36s-2.87,2.38-2.36,4.19c.67,2.41-1.31,5.92-3.72,6.59-2.41,.67-5.92-1.31-6.59-3.72-.5-1.81-2.38-2.87-4.19-2.36-1.81,.5-2.87,2.38-2.36,4.19,1.37,4.9,6.45,8.53,11.54,8.81l1.71,6.12c-3.79,2.16-6.67,6.01-7.39,10.09l-2.7-.53-6.02-6.65c-.9-1-2.44-1.07-3.43-.17-1,.9-1.07,2.44-.17,3.43l6.56,7.26c.35,.39,.82,.66,1.34,.76l4.73,.92c.2,.63,.45,1.24,.79,1.85l-3.36,.94c-.89,.25-1.56,.97-1.73,1.88l-1.87,9.6c-.26,1.32,.6,2.59,1.92,2.85,.38,.07,.76,.05,1.11-.04,.86-.24,1.55-.94,1.74-1.88l1.58-8.13,1.49-.42c.29,2.02,.74,4.29,1.42,6.57l-2.62,8.01c-.15,.46-.16,.95-.03,1.41l2.35,8.43c.36,1.29,1.7,2.05,2.99,1.69s2.05-1.7,1.69-2.99l-2.15-7.72,.7-2.14c3.04,4.83,7.97,8.04,15.97,5.81,8-2.23,10.56-7.52,10.66-13.23l1.7,1.47,2.15,7.72c.36,1.29,1.7,2.05,2.99,1.69,1.29-.36,2.05-1.7,1.69-2.99Zm-17.55-21.35l-3.83,1.07-2.64,4.69,4.85,17.41c.14,.52-.16,1.05-.68,1.2-.52,.14-1.05-.16-1.2-.68l-4.85-17.41-4.69-2.64-3.83,1.07c-.52,.14-1.05-.16-1.2-.68-.14-.52,.16-1.05,.68-1.2l16.86-4.7c.52-.14,1.05,.16,1.2,.68,.14,.52-.16,1.05-.68,1.2Z"/></g><g><polygon class="cls-6" points="150.27 102.33 151.68 99.83 147.77 100.92 150.27 102.33"/><path class="cls-6" d="M168.13,93.11c-.62-.68-1.57-.96-2.45-.71l-3.36,.94c-.03-.69-.13-1.35-.28-1.99l3.58-3.23c.39-.35,.66-.82,.76-1.34l1.87-9.6c.26-1.32-.6-2.59-1.92-2.85-1.32-.26-2.59,.6-2.85,1.92l-1.71,8.81-2.04,1.85c-2.72-3.13-7.18-4.93-11.54-4.82l-1.71-6.12c4.22-2.86,6.69-8.6,5.32-13.5-.5-1.81-2.38-2.87-4.19-2.36s-2.87,2.38-2.36,4.19c.67,2.41-1.31,5.92-3.72,6.59s-5.92-1.31-6.59-3.72c-.5-1.81-2.38-2.87-4.19-2.36s-2.87,2.38-2.36,4.19c1.37,4.9,6.45,8.53,11.54,8.81l1.71,6.12c-3.79,2.16-6.67,6.01-7.39,10.09l-2.7-.53-6.02-6.65c-.9-1-2.44-1.07-3.43-.17-1,.9-1.07,2.44-.17,3.43l6.56,7.26c.35,.39,.82,.66,1.34,.76l4.73,.92c.2,.63,.45,1.24,.79,1.85l-3.36,.94c-.89,.25-1.56,.97-1.73,1.88l-1.87,9.6c-.26,1.32,.6,2.59,1.92,2.85,.38,.07,.76,.05,1.11-.04,.86-.24,1.55-.94,1.74-1.88l1.58-8.13,1.49-.42c.29,2.02,.74,4.29,1.42,6.57l-2.62,8.01c-.15,.46-.16,.95-.03,1.41l2.35,8.43c.36,1.29,1.7,2.05,2.99,1.69s2.05-1.7,1.69-2.99l-2.15-7.72,.7-2.14c3.04,4.83,7.97,8.04,15.97,5.81,8-2.23,10.56-7.52,10.66-13.23l1.7,1.47,2.15,7.72c.36,1.29,1.7,2.05,2.99,1.69s2.05-1.7,1.69-2.99l-2.35-8.43c-.13-.46-.39-.88-.76-1.19l-6.39-5.5c-.59-2.3-1.39-4.47-2.18-6.35l1.49-.42,5.55,6.14c.64,.71,1.6,.95,2.46,.71,.35-.1,.69-.28,.98-.54,1-.9,1.07-2.44,.17-3.43l-6.56-7.26Zm-9.97,4.92l-3.83,1.07-2.64,4.69,4.85,17.41c.14,.52-.16,1.05-.68,1.2s-1.05-.16-1.2-.68l-4.85-17.41-4.69-2.64-3.83,1.07c-.52,.14-1.05-.16-1.2-.68s.16-1.05,.68-1.2l16.86-4.7c.52-.14,1.05,.16,1.2,.68s-.16,1.05-.68,1.2Z"/></g></g></g></g></svg>